<svg t="1597728224793" class="icon" viewBox="0 0 1024 1024" version="1.1" xmlns="http://www.w3.org/2000/svg" p-id="14187" width="16" height="16"><path d="M913.5 225.8h-241V128c0-34.5-28.3-62.8-62.8-62.8H413.3c-34.5 0-62.8 28.3-62.8 62.8v97.8H111.1c-25.8 0-46.9 21.1-46.9 46.9 0 25.8 21.1 46.9 46.9 46.9h81v590.3c0 25.8 21.1 46.9 46.9 46.9h546.4c25.8 0 46.9-21.1 46.9-46.9 0-1.1-0.1-2.2-0.1-3.3V319.5h81.5c25.8 0 46.9-21.1 46.9-46.9-0.2-25.7-21.3-46.8-47.1-46.8z m-465.4-69.7c0-0.1 0-0.1 0 0l128-0.1s0.1 0 0.1 0.1v69.7h-128v-69.7zM737 863H287V319.5h450V863z" fill="#409EFF" p-id="14188"></path><path d="M420.8 767.8c27.4 0 49.8-22.4 49.8-49.8V466c0-27.4-22.4-49.8-49.8-49.8S371 438.6 371 466v252c0 27.4 22.4 49.8 49.8 49.8zM602.9 767.8c27.4 0 49.8-22.4 49.8-49.8V466c0-27.4-22.4-49.8-49.8-49.8s-49.8 22.4-49.8 49.8v252c0 27.4 22.4 49.8 49.8 49.8z" fill="#409EFF" p-id="14189"></path></svg>