<svg t="1597728021430" class="icon" viewBox="0 0 1024 1024" version="1.1" xmlns="http://www.w3.org/2000/svg" p-id="11305" width="16" height="16"><path d="M85.333333 128v768c0 23.466667 19.2 42.666667 42.666667 42.666667h768c23.466667 0 42.666667-19.2 42.666667-42.666667V469.333333c0-23.466667-19.2-42.666667-42.666667-42.666666s-42.666667 19.2-42.666667 42.666666v384H170.666667V170.666667h384c23.466667 0 42.666667-19.2 42.666666-42.666667s-19.2-42.666667-42.666666-42.666667H128c-23.466667 0-42.666667 19.2-42.666667 42.666667" fill="#409EFF" p-id="11306"></path><path d="M947.2 196.266667c17.066667 17.066667 17.066667 42.666667 0 59.733333L550.4 654.933333c-6.4 6.4-14.933333 10.666667-23.466667 12.8l-145.066666 25.6h-6.4c-10.666667 0-21.333333-4.266667-29.866667-12.8-10.666667-10.666667-14.933333-23.466667-12.8-38.4l25.6-145.066666c2.133333-8.533333 6.4-17.066667 12.8-23.466667L765.866667 76.8c17.066667-17.066667 42.666667-17.066667 59.733333 0l121.6 119.466667z m-448 390.4l358.4-358.4-59.733333-59.733334-360.533334 356.266667-10.666666 74.666667 72.533333-12.8z" fill="#409EFF" p-id="11307"></path></svg>