<svg t="1589735843883" class="icon" viewBox="0 0 1026 1024" version="1.1" xmlns="http://www.w3.org/2000/svg" p-id="11549" width="200" height="200"><path d="M497.0496 344.696832c26.902528 0 47.081472-20.176896 47.081472-47.081472 0-25.22112-20.176896-47.081472-47.081472-47.081472-25.22112 0-47.079424 21.858304-47.079424 47.081472C449.970176 324.517888 471.82848 344.696832 497.0496 344.696832z" p-id="11550" fill="#ffffff"></path><path d="M270.055424 250.535936c-26.902528 0-47.081472 21.858304-47.081472 47.081472 0 26.902528 20.176896 47.081472 47.081472 47.081472 25.22112 0 47.079424-20.176896 47.079424-47.081472C317.134848 272.39424 295.276544 250.535936 270.055424 250.535936z" p-id="11551" fill="#ffffff"></path><path d="M991.39584 729.747456c21.858304-38.672384 33.62816-80.709632 33.62816-126.107648 0-79.028224-36.990976-151.330816-99.20512-201.773056-45.398016-38.672384-102.567936-65.57696-168.144896-75.665408-16.81408-63.895552-53.807104-121.063424-105.930752-164.78208-68.939776-58.851328-164.78208-94.160896-267.350016-94.160896-104.249344 0-200.091648 35.309568-269.031424 94.160896C44.740608 221.949952 1.024 304.340992 1.024 396.82048c0 52.125696 13.451264 102.567936 38.672384 146.286592 21.858304 38.672384 52.125696 70.621184 87.435264 99.20512l-23.539712 82.39104-23.539712 79.028224 73.984-35.309568 116.0192-55.488512c16.81408 5.044224 31.946752 8.40704 48.76288 10.088448 21.858304 3.362816 43.716608 5.044224 65.57696 5.044224 6.725632 0 13.451264 0 18.495488 0 16.81408 28.583936 38.672384 55.488512 63.895552 77.346816 38.672384 33.62816 87.435264 57.16992 141.242368 70.621184 1.681408 0 3.362816 1.681408 5.044224 1.681408 26.902528 6.725632 55.488512 10.088448 84.072448 10.088448 18.495488 0 36.990976-1.681408 55.488512-5.044224 13.451264-1.681408 26.902528-5.044224 40.353792-8.40704l94.160896 45.398016 75.665408 36.990976-23.539712-79.028224-18.495488-65.57696C949.358592 788.596736 972.898304 760.0128 991.39584 729.747456zM386.074624 691.073024l-1.681408 0c-40.353792 0-80.709632-6.725632-117.700608-16.81408l-127.789056 60.532736 30.265344-107.61216c-80.709632-53.807104-131.151872-136.198144-131.151872-230.356992 0-161.419264 154.693632-292.571136 346.37824-292.571136 159.737856 0 294.252544 92.479488 332.926976 216.905728-6.725632 0-13.451264 0-20.176896 0-89.116672 0-169.826304 30.265344-230.356992 80.709632-58.851328 50.44224-95.842304 122.744832-95.842304 201.773056C370.941952 633.905152 375.986176 664.170496 386.074624 691.073024zM877.056 797.005824l26.902528 90.79808-107.61216-52.125696c-31.946752 8.40704-63.895552 15.132672-99.20512 15.132672-23.539712 0-47.081472-3.362816-70.621184-8.40704-5.044224 0-11.769856-1.681408-16.81408-3.362816-70.621184-20.176896-131.151872-60.532736-166.463488-116.0192-1.681408-1.681408-1.681408-3.362816-3.362816-6.725632l0-1.681408c-1.681408 0-1.681408-1.681408-1.681408-1.681408l-1.681408-1.681408c0-1.681408 0-1.681408-1.681408-3.362816l0-1.681408-1.681408-1.681408c0-1.681408-1.681408-1.681408-1.681408-3.362816l0-1.681408c-1.681408 0-1.681408-1.681408-1.681408-3.362816l-1.681408 0c0-1.681408 0-3.362816-1.681408-3.362816l0-1.681408c-11.769856-26.902528-18.495488-57.16992-18.495488-87.435264 0-136.198144 127.789056-245.491712 289.20832-245.491712 11.769856 0 25.22112 0 36.990976 1.681408 1.681408 0 5.044224 0 6.725632 0l1.681408 0c1.681408 1.681408 3.362816 1.681408 5.044224 1.681408l1.681408 0c1.681408 0 3.362816 0 5.044224 0 1.681408 1.681408 1.681408 1.681408 3.362816 1.681408s1.681408 0 3.362816 0c1.681408 0 1.681408 0 3.362816 1.681408 127.789056 25.22112 223.63136 122.744832 223.63136 238.76608C988.033024 682.665984 944.314368 751.60576 877.056 797.005824z" p-id="11552" fill="#ffffff"></path><path d="M609.708032 494.344192c-20.176896 0-35.309568 16.81408-35.309568 36.990976 0 20.176896 15.132672 35.309568 35.309568 35.309568 20.176896 0 36.990976-15.132672 36.990976-35.309568C646.699008 511.158272 629.884928 494.344192 609.708032 494.344192z" p-id="11553" fill="#ffffff"></path><path d="M796.348416 494.344192c-20.176896 0-35.309568 16.81408-35.309568 36.990976 0 20.176896 15.132672 35.309568 35.309568 35.309568s36.990976-15.132672 36.990976-35.309568C833.339392 511.158272 816.525312 494.344192 796.348416 494.344192z" p-id="11554" fill="#ffffff"></path></svg>