<svg t="1589650307966" class="icon" viewBox="0 0 1024 1024" version="1.1" xmlns="http://www.w3.org/2000/svg" p-id="17749" width="200" height="200"><path d="M490.656 31.876h42.688v168.376h-42.688z" fill="#CCD1D9" p-id="17750"></path><path d="M149.344 618.688V832c0 11.782 9.532 21.344 21.312 21.344S192 843.782 192 832V618.688H149.344zM832 618.688v212.656c0 11.782 9.562 21.344 21.344 21.344s21.312-9.562 21.312-21.344V618.688H832z" fill="#434A54" p-id="17751"></path><path d="M170.656 469.344h142.218V640H170.656c-47.124 0-85.312-38.188-85.312-85.312 0-47.156 38.188-85.344 85.312-85.344zM853.344 469.344h-142.218V640h142.218c47.124 0 85.312-38.188 85.312-85.312 0-47.156-38.188-85.344-85.312-85.344z" fill="#CCD1D9" p-id="17752"></path><path d="M512 853.344m-170.656 0a170.656 170.656 0 1 0 341.312 0 170.656 170.656 0 1 0-341.312 0Z" fill="#434A54" p-id="17753"></path><path d="M810.656 490.688C810.656 325.718 676.938 192 512 192s-298.656 133.718-298.656 298.688V896c0 23.562 19.094 42.688 42.656 42.688h512c23.562 0 42.656-19.124 42.656-42.688V490.688z" fill="#E6E9ED" p-id="17754"></path><path d="M213.344 490.688V512h597.312v-21.312c0-7.188-0.25-14.312-0.75-21.344H214.094a301.06 301.06 0 0 0-0.75 21.344z" fill="#AAB2BD" p-id="17755"></path><path d="M512 64m-64 0a64 64 0 1 0 128 0 64 64 0 1 0-128 0Z" fill="#E6E9ED" p-id="17756"></path><path d="M640 618.688c0 11.782-9.562 21.312-21.344 21.312s-21.312-9.532-21.312-21.312 9.532-21.344 21.312-21.344S640 606.906 640 618.688z" fill="#A0D468" p-id="17757"></path><path d="M436.906 362.688c0 11.782-9.562 21.312-21.344 21.312s-21.344-9.532-21.344-21.312 9.562-21.344 21.344-21.344 21.344 9.562 21.344 21.344z" fill="#434A54" p-id="17758"></path><path d="M725.344 618.688c0 11.782-9.562 21.312-21.344 21.312s-21.344-9.532-21.344-21.312 9.562-21.344 21.344-21.344 21.344 9.562 21.344 21.344z" fill="#ED5565" p-id="17759"></path><path d="M607.562 362.688c0 11.782-9.562 21.312-21.344 21.312s-21.312-9.532-21.312-21.312 9.532-21.344 21.312-21.344 21.344 9.562 21.344 21.344zM405.344 597.344H320c-11.782 0-21.344 9.562-21.344 21.344S308.218 640 320 640h85.344c11.782 0 21.312-9.532 21.312-21.312s-9.532-21.344-21.312-21.344z" fill="#434A54" p-id="17760"></path></svg>